<?xml version="1.0" encoding="UTF-8"?>
<!-- Generator: Adobe Illustrator 25.2.1, SVG Export Plug-In . SVG Version: 6.00 Build 0)  -->
<svg xmlns="http://www.w3.org/2000/svg" xmlns:xlink="http://www.w3.org/1999/xlink" version="1.1" id="Capa_1" x="0px" y="0px" viewBox="0 0 512 512" style="enable-background:new 0 0 512 512;" xml:space="preserve" width="512" height="512">
<g>
	<g>
		<path style="fill-rule:evenodd;clip-rule:evenodd;fill:#754E27;" d="M411.65,347.44c3.148,26.245,5.725,52.787,8.165,79.652    c2.422,26.707,5.14,53.804,5.327,81.496c-5.271,1.05-11.304,1.32-17.557,1.365c-8.934-52.061-15.806-107.799-20.997-162.486    C395.147,347.663,403.447,347.602,411.65,347.44z"/>
		<path style="fill-rule:evenodd;clip-rule:evenodd;fill:#754E27;" d="M329.014,510.869c-5.156-0.35-9.759-0.055-15.034-0.546    c-9.28-50.732-12.305-106.806-18.249-160.386c6.212-0.057,15.109-0.125,21.378-0.212c0.803-0.014,0.504-0.454,1.588-0.194    c1.629,0.395,0.701,0.231,0.815,1.636c2.023,25.263,3.173,53.4,4.873,78.292C326.244,456.721,327.94,483.813,329.014,510.869z"/>
		<path style="fill-rule:evenodd;clip-rule:evenodd;fill:#754E27;" d="M95.509,349.788c-1.511,26.391-2.433,53.043-3.193,80.005    c-0.762,26.806-1.785,54.021-0.25,81.671c5.325,0.721,11.365,0.614,17.609,0.269c5.68-52.518,9.067-108.57,10.846-163.477    C111.994,348.986,103.708,349.439,95.509,349.788z"/>
		<path style="fill-rule:evenodd;clip-rule:evenodd;fill:#754E27;" d="M188.511,509.358c5.16-0.328,9.76-0.015,15.037-0.483    c9.497-50.691,12.76-106.752,18.936-160.308c-6.213-0.082-15.111-0.187-21.379-0.307c-0.803-0.014-0.502-0.452-1.582-0.196    c-1.634,0.389-0.707,0.229-0.826,1.632c-2.132,25.254-3.4,53.388-5.21,78.269C191.511,455.222,189.699,482.305,188.511,509.358z"/>
	</g>
	<g>
		<g>
			<path style="fill-rule:evenodd;clip-rule:evenodd;fill:#525E0A;" d="M243.829,351.773c-51.106,1.674-104.078,1.444-153.84,4.494     c-4.247-12.917-10-46.063-1.188-60.15c6.368-10.18,20.099-16.597,31.574-21.876c5.915-2.72,12.292-5.36,18.57-7.93     c6.431-2.631,13.174-4.934,18.57-7.931c15.95-8.856,23.4-30.192,27.215-51.366c1.906-10.564,3.4-22.577,4.786-34.712     c1.213-10.621,3.228-25.255,10.045-29.327c3.696-2.207,10.569-2.971,16.01-2.949c5.431,0.024,17.66,1.254,21.565,4.009     c5.074,3.577,5.814,12.55,6.652,20.748c0.934,9.109,1.084,17.55,1.273,25.698c0.432,18.848,0.607,36.036,0.954,53.256     C246.754,281.112,245.548,318.19,243.829,351.773z"/>
			
				<rect x="204.786" y="150.69" transform="matrix(0.0115 -0.9999 0.9999 0.0115 60.2024 545.5035)" style="fill-rule:evenodd;clip-rule:evenodd;fill:#525E0A;" width="202.453" height="183.224"/>
		</g>
		<path style="fill-rule:evenodd;clip-rule:evenodd;fill:#95A534;" d="M270.676,311.049c-0.453,16.97,0.954,32.034,2.149,47.323    c-60.929-1.829-120.946-2.296-182.836-2.105c-2.337-15.056-6.572-32.653,1.759-41.326c6.961-7.247,22.9-7.883,37.785-8.02    c12.699-0.118,26.614,0.247,38.292-0.187C203.509,305.408,238.122,309.257,270.676,311.049z"/>
	</g>
	<g>
		<g>
			<g>
				<g>
					<path style="fill-rule:evenodd;clip-rule:evenodd;fill:#EFAC8B;" d="M251.31,31.005c3.897-1.954,9.044-2.64,11.07,0.497       c2.609,4.034-0.5,8.762-2.753,11.253c-1.029,1.14-2.438,1.748-2.965,2.8c-0.496,1.017-0.238,4.385,0.064,5.661       c2.462,10.366,12.606,23.993,9.589,33.167c-0.475,1.442-2.07,4.371-3.256,5.771c-2.223,2.638-13.311,7.902-17.711,8.411       c-5.601,0.641-7.851-2.639-11.229-7.508c-1.879-2.739-1.83-9.14-3.832-13.205c-5.429,0.971-10.555-0.978-14.991-5.278       c-2.436-2.363-5.235-7.539-6.158-12.149c-0.514-2.566-0.528-6.172-0.632-10.075c-0.162-6.588-0.455-12.894-0.137-19.342       c0.184-3.818,0.247-7.194,1.025-9.228c1.651-4.341,6.085-8.744,12.771-10.815c9.668-2.997,21.904,0.895,26.82,9.639       C251.184,24.506,251.341,27.502,251.31,31.005"/>
					<g>
						<g>
							<g>
								<path style="fill-rule:evenodd;clip-rule:evenodd;fill:#FFFFFF;" d="M236.272,39.598          c-5.291,6.067-10.618,1.687-10.618,1.687s1.314-2.219,5.013-2.977C233.406,37.741,236.272,39.598,236.272,39.598"/>
								<path style="fill-rule:evenodd;clip-rule:evenodd;fill:#5C548E;" d="M225.655,41.285c0,0,2.582,2.142,5.988,1.352          c0.094-0.264,0.307-0.809,0.318-1.11c0.001-1.357-1.004-2.508-2.403-2.929C226.711,39.522,225.655,41.285,225.655,41.285"/>
							</g>
							<path style="fill:#754E27;" d="M236.499,37.012c-4.6-2.912-10.004-0.864-11.767,0.513l-1.227-1.56         c2.794-2.184,9.001-3.828,14.047-0.625L236.499,37.012z"/>
						</g>
						<g>
							<g>
								<path style="fill-rule:evenodd;clip-rule:evenodd;fill:#FFFFFF;" d="M218.33,40.7c-4.636,5.857-9.758,2.027-9.758,2.027          s1.109-2.113,4.505-2.988C215.595,39.104,218.33,40.7,218.33,40.7"/>
								<path style="fill-rule:evenodd;clip-rule:evenodd;fill:#5C548E;" d="M208.572,42.726c0,0,2.477,1.874,5.604,0.992          c0.075-0.255,0.253-0.767,0.238-1.043c-0.049-1.261-1.029-2.288-2.355-2.611C209.461,41.038,208.572,42.726,208.572,42.726"/>
							</g>
							<path style="fill:#754E27;" d="M218.547,38.59c-4.228-2.681-9.209-0.799-10.832,0.471l-1.224-1.565         c2.606-2.04,8.396-3.577,13.114-0.579L218.547,38.59z"/>
						</g>
						<path style="fill-rule:evenodd;clip-rule:evenodd;fill:#DB8C6A;" d="M247.414,64.714c1.041,5.027-6.756,15.522-15.753,17.973        l-1.371-4.836C238.131,75.492,243.962,69.455,247.414,64.714"/>
						<g>
							<path style="fill-rule:evenodd;clip-rule:evenodd;fill:#FFFFFF;" d="M235.593,52.633c3.426,4.513-1.267,11.624-8.243,13.565         c-2.528,0.698-7.202,0.496-8.625-2.055c-2.484-4.458,2.174-5.582,5.92-7.414C228.308,54.941,232.721,48.844,235.593,52.633"/>
							<path style="fill-rule:evenodd;clip-rule:evenodd;fill:#DB8C6A;" d="M224.182,54.67c-11.159,0.939-4.808-8.735-3.405-13.558         c0.082-0.265,0.028-0.77,0.391-0.942C223.052,39.252,224.657,50.451,224.182,54.67"/>
							<path style="fill-rule:evenodd;clip-rule:evenodd;fill:#DB8C6A;" d="M243.788,45.742c0.81,1.931-0.083,4.152-2.019,4.966         c-1.928,0.814-4.153-0.09-4.967-2.021c-0.813-1.928,0.091-4.153,2.02-4.965C240.756,42.905,242.972,43.813,243.788,45.742"/>
							<path style="fill:#DB8C6A;" d="M212.657,49.805c0.812,1.928-0.092,4.158-2.026,4.974c-0.653,0.275-1.345,0.334-1.989,0.245         c-0.059-1.473-0.09-3.04-0.132-4.674c-0.018-0.942-0.044-1.86-0.082-2.787C210.158,47.225,211.946,48.122,212.657,49.805z"/>
						</g>
					</g>
				</g>
				<path style="fill-rule:evenodd;clip-rule:evenodd;fill:#754E27;" d="M198.251,1.418c-2.761,4.485,5.546,7.215,9.685,9.587      c-5.256,0.161-17.419-7.276-19.946-1.439c-2.106,4.843,7.128,8.513,12.245,11.234c8.125,4.316,16.857,5.446,28.741,6.813      c3.353,0.395,7.465,0.902,9.705,2.414c2.429,1.638,3.244,5.286,4.099,8.154c0.856,2.846,0.602,8.482,4.495,7.79      c2.609-0.463,1.458-4.359,1.878-6.699c0.342-2.016,0.887-4.313,1.825-5.953c1.328-2.337,2.337-3.236,4.356-3.92      c-1.504-11.933-8.383-22.592-21.385-24.186c-4.218-0.524-8.631,0.806-13.241,0.42C212.772,4.975,201.098-3.228,198.251,1.418z"/>
			</g>
			<g>
				<path style="fill-rule:evenodd;clip-rule:evenodd;fill:#F4BE53;" d="M258.088,88.599c-1.492,7.025-7.56,13.225-11.249,19.355      c7.836,12.006,16.106,34.347,23.671,51.403c5.702,12.853,11.167,25.853,17.705,37.676c2.207,3.984,4.783,7.722,6.378,11.996      c-24.003,1.26-34.243,16.398-47.136,27.938c-9.204-1.301-18.055-3.769-26.941-5.448c0.164-2.493,1.604-3.616,2.426-5.91      c2.379-6.678,3.717-13.971,5.346-21.486c6.011-27.674,9.032-59.44,9.532-92.429c0.024-1.472,0.429-3.065,0.27-4.103      c-0.286-1.906-1.8-4.591-2.515-7.31c-0.738-2.796-3.176-11.952-3.711-14.663c1.769,5.559,6.034,10.825,8.788,11.713      C246.943,99.368,254.836,92.919,258.088,88.599"/>
				<g>
					<path style="fill-rule:evenodd;clip-rule:evenodd;fill:#ED500A;" d="M230.621,79.381c0.292,3.581,5.128,21.703,9.058,28.384       c-1.144,23.096-1.936,45.4-4.878,66.616c-2.922,21.084-7.133,38.965-12.817,57.409c-8.041-1.532-16.055-2.953-23.847-4.781       c0.719-10.841,2.685-25.886,3.683-36.502c-3.581,4.03-9.425,13.701-14.238,18.095c-3.932,3.589-9.811,8.885-15.694,10.777       c-2.742,0.881-6.523,1.566-9.335,0.812c-5.278-1.409-9.415-5.248-11.737-8.705c-1.639-2.437-3.097-6.44-3.151-11.02       c-0.089-6.488,3.072-12.963,5.222-19.273c2.191-6.431,4.457-12.818,6.58-18.139c8.816-22.132,15.949-40.359,30.813-56.867       C198.282,97.299,223.923,81.142,230.621,79.381"/>
					<path style="fill-rule:evenodd;clip-rule:evenodd;fill:#C6360A;" d="M201.821,190.508c0,0,15.164-42.065-10.726-85.19       l-4.764,5.514C208.137,156.478,201.821,190.508,201.821,190.508"/>
					<path style="fill-rule:evenodd;clip-rule:evenodd;fill:#C6360A;" d="M239.679,107.767c-1.498,2.191-4.601,2.195-6.384,4.031       c-3.636,3.748-3.276,8.369-8.282,11.36c2.84-8.193-2.03-12.818-1.878-21.588c0.146-8.171,0.093-19.263,2.607-23.155       c0.805-1.248,2.795-1.207,4.546-0.564C230.29,77.851,236.132,98.935,239.679,107.767z"/>
				</g>
				<g>
					<g>
						<path style="fill-rule:evenodd;clip-rule:evenodd;fill:#8480C1;" d="M223.643,150.142c0.332,2.656-1.55,5.082-4.209,5.417        l-16.287-0.397c-2.66,0.333-5.084-1.549-5.417-4.207l-4.253-33.784c-0.333-2.661,1.555-5.084,4.211-5.422l16.284,0.394        c2.656-0.331,5.085,1.552,5.418,4.212L223.643,150.142z"/>
						<path style="fill:#5C548E;" d="M214.437,112.113c1.241,0.763,2.142,2.058,2.336,3.616l4.351,34.608        c0.287,2.256-0.994,4.343-2.981,5.19l1.288,0.034c2.658-0.337,4.543-2.762,4.211-5.422l-4.257-33.783        C219.073,113.852,216.909,112.037,214.437,112.113"/>
						<path style="fill:#5C548E;" d="M196.254,117.489c-0.498-0.064-0.883-0.486-0.891-1c-0.002-0.56,0.445-1.025,1.008-1.036        l1.655-0.022c0.568-0.007,1.026,0.441,1.031,1.009c0.011,0.564-0.44,1.027-1.004,1.036l-1.651,0.023        C196.35,117.499,196.301,117.493,196.254,117.489"/>
						<path style="fill:#5C548E;" d="M200.244,117.376c-0.496-0.065-0.885-0.486-0.887-1.001c-0.008-0.565,0.441-1.028,1.006-1.034        l0.302-0.004c0.56-0.013,1.027,0.442,1.033,1.011c0.009,0.562-0.441,1.024-1.006,1.029l-0.299,0.005        C200.34,117.385,200.291,117.382,200.244,117.376"/>
					</g>
					<g>
						<g>
							<path style="fill-rule:evenodd;clip-rule:evenodd;fill:#EFAC8B;" d="M187.243,170.468c5.761-1.921,12.608-0.146,12.608-0.146         s-1.195-3.811,1.507-7.3c2.1-1.392,4.146-5.31,3.794-8.826c-0.109-1.146-0.784-2.008-0.844-2.991         c1.375-0.912,3.024-0.882,5.201-1.146c1.379-0.168,4.616-0.347,5.004-1.586c0.511-1.641-2.095-2.941-3.234-3.256         c-3.125-0.861-5.51-0.154-7.505,0.351c-0.503,0.13-1.465,0.516-1.621-0.004c-0.201-0.65,1.687-1.081,2.655-1.306         c0.983-0.23,2.144-0.515,3.228-0.673c1.711-0.252,5.663-0.08,5.883-1.979c0.166-1.439-2.572-2.568-3.854-2.819         c-2.96-0.58-6.187,0.234-8.273,0.898c-0.767,0.249-2.213,0.913-2.392,0.541c-0.326-0.669,3.742-2.05,6.387-2.569         c1.363-0.268,6.522-0.425,6.724-2.108c0.098-0.839-1.173-1.8-2.212-2.135c-3.521-1.132-7.933-0.145-10.42,0.8         c-1.257,0.484-3.547,1.991-3.91,1.505c-0.431-0.578,2.996-4.216,5.041-5.774c0.83-0.635,1.848-1.198,3.053-2.054         c0.861-0.608,2.666-1.593,2.424-3.111c-0.153-0.965-2.25-1.392-3.044-1.191c-8.555,2.157-15.002,9.531-17.387,20.329         c-1.822,8.237-0.903,15.729,0.374,22.527C186.688,167.818,186.964,169.151,187.243,170.468"/>
							<g>
								<path style="fill-rule:evenodd;clip-rule:evenodd;fill:#DB8C6A;" d="M213.174,146.166c0.777,0.621,1.606,1.201,1.37,2.177          c-0.344,1.452-3.16,1.474-5.023,1.716c-2.24,0.294-3.809,0.531-5.227,1.28c0.153,0.399,0.459,1.163,0.629,1.87          c0.858,3.554-1.238,8.25-3.69,9.79c0.651-1.622,1.662-3.351,2.012-5.475c0.445-2.723-0.186-5.352-0.768-7.437          C204.571,149.926,212.133,149.965,213.174,146.166"/>
								<path style="fill-rule:evenodd;clip-rule:evenodd;fill:#DB8C6A;" d="M202.302,123.855c2.492-0.968,5.549-0.158,3.773,2.62          c-0.626,0.972-2.727,2.021-3.848,2.727c-1.522,0.963-3.495,2.607-4.285,3.431c0.942-1.621,2.169-2.556,3.672-3.804          C203.398,127.347,206.477,124.697,202.302,123.855"/>
								<path style="fill-rule:evenodd;clip-rule:evenodd;fill:#DB8C6A;" d="M210.374,134.644c0.366-0.603,0.081-0.953-0.405-1.317          c1.85,0.443,3.413,2.107,2.129,3.099c-1.008,0.784-2.998,0.851-4.913,1.061c-2.022,0.219-4.287,0.877-5.579,1.287          C203.681,137.439,208.83,137.207,210.374,134.644"/>
								<path style="fill-rule:evenodd;clip-rule:evenodd;fill:#DB8C6A;" d="M212.238,139.626c0.538,0.229,2,1.166,1.541,2.245          c-0.601,1.425-3.545,1.629-5.622,1.87c-2.428,0.279-4.715,0.649-5.861,1.308c0.831-1.599,7.304-1.715,9.832-4.015          C212.572,140.581,212.564,140.061,212.238,139.626"/>
							</g>
						</g>
						<g>
							<path style="fill-rule:evenodd;clip-rule:evenodd;fill:#ED500A;" d="M181.942,154.509c3.776,2.887,19.37,17.138,19.37,17.138         c-0.983,6.411-5.719,18.154-8.045,22.974c-3.579,7.428-8.107,14.927-12.44,19.277c-3.609,3.621-11.021,8.437-18.274,6.293         c-8.187-2.415-16.214-10.1-14.961-22.517c1.092-10.768,10.042-19.212,16.68-26.259         C170.342,164.971,176.14,159.212,181.942,154.509"/>
							<path style="fill:#C6360A;" d="M197.483,168.168c-1.398,6.604-5.604,16.967-7.751,21.426         c-3.583,7.427-8.109,14.926-12.442,19.278c-3.61,3.622-11.022,8.433-18.275,6.293c-3.414-1.011-6.791-2.944-9.486-5.748         c2.741,5.607,7.847,9.246,13.024,10.774c7.252,2.143,14.664-2.67,18.274-6.293c4.333-4.35,8.861-11.849,12.44-19.277         c2.326-4.82,7.06-16.563,8.045-22.974C201.313,171.647,199.744,170.217,197.483,168.168"/>
						</g>
					</g>
				</g>
				<g>
					<path style="fill-rule:evenodd;clip-rule:evenodd;fill:#ED500A;" d="M263.072,73.738c25.689,0.22,48.314,4.096,65.274,14.716       c-0.615,3.73-2.196,4.877-3.342,8.445c-4.383,13.578-5.935,33.248-3.039,51.712c2.77,17.642,8.276,33.901,15.353,46.665       c7.585,13.681,15.632,24.677,24.189,36.484c5.74,7.925,11.8,18.861,15.498,30.336c1.359,4.218,2.896,9.008,2.975,12.602       c0.174,7.52-12.954,30.692-25.288,33.882c-0.131-19.752-9.201-43.788-15.97-53.821c-3.917-5.808-9.414-10.397-14.482-15.056       c-5.143-4.718-10.311-9.114-15.31-13.728c-10.142-9.355-17.787-20.95-24.964-34.532c-7.01-13.27-13.175-27.125-19.277-41.301       c-5.877-13.661-10.847-28.495-17.851-42.188c1.231-2.961,2.403-4.27,4.181-6.82c6.296-9.027,8.915-16.396,11.507-26.407       C262.468,74.195,262.69,73.899,263.072,73.738"/>
					<path style="fill-rule:evenodd;clip-rule:evenodd;fill:#C6360A;" d="M263.607,119.113c-1.993-0.953-3.988-2.377-5.194-4.405       c-2.553-4.294-5.455-7.599-11.575-6.754c1.091-2.895,2.818-6.917,4.51-9.569c3.925-6.165,7.899-13.372,10.042-21.577       c0.742-2.821,1.151-5.334,1.383-8.783c-0.128-0.495,0.246-0.781,0.949-0.519c10.961,4.551,8.584,19.807,4.387,28.796       c-2.599,5.561-6.781,9.806-6.349,17.177C261.917,116.211,263.765,117.337,263.607,119.113"/>
					<g>
						<path style="fill:#C6360A;" d="M328.017,88.281c-1.863-1.142-4.226-2.449-6.102-3.408        c-12.95,18.714-11.778,68.66-5.563,97.638c1.94,0.458,3.608,0.834,4.895,1.094        C315.874,148.017,318.629,100.013,328.017,88.281"/>
						<g>
							<path style="fill-rule:evenodd;clip-rule:evenodd;fill:#DB8C6A;" d="M247.143,166.568c-0.766-2.327-2.215-4.527-3.861-6.264         c-3.326-3.532-7.617-6.534-11.47-10.26c-1.89-1.842-4.625-5.722-5.937-5.173c-2.3,0.961,1.434,9.243,3.137,10.612         c1.646,1.322,4.829,1.928,7.353,3.184C240.654,160.82,243.973,163.937,247.143,166.568"/>
							<path style="fill-rule:evenodd;clip-rule:evenodd;fill:#EFAC8B;" d="M241.317,183.386c1.513,0.384,3.397-0.04,4.555,0.62         c1.907,1.086,4.722,3.659,7.857,6.847c1.259-3.427,2.261-6.936,2.886-10.525c0.426-2.493,1.295-4.58,2.467-6.291         c-4.9-2.946-8.453-5.087-9.701-6.022c-3.323-2.51-6.086-5.806-9.52-8.02c-4.399-2.832-9.901-5.154-15.226-6.013         c-7.874-1.27-13.707-3.897-16.276-3.011c-1.86,2.563,8.867,6.173,14.038,9.265c-2.261,0.344-6.105,1.367-7.971,1.866         c-1.757,0.469-12.324,3.701-12.184,5.998c0.084,1.451,4.168,0.657,5.961,0.44c5.668-0.687,11.627-2.651,18.026-1.224         c-1.019,1.4-3.007,1.938-4.718,2.556c-3.336,1.206-6.948,2.214-10.395,3.915c-1.544,0.762-4.659,2.206-4.262,3.479         c0.755,2.375,7.976-0.894,11.814-1.808c3.806-0.909,7.565-1.774,11.574-1.947c-4.215,3.39-14.523,4.703-13.666,7.953         c0.331,1.261,5.726-0.315,8.323-0.841c2.655-0.541,5.232-1.072,7.967-1.363C236.274,181.124,238.642,182.703,241.317,183.386         "/>
						</g>
						<g>
							<path style="fill-rule:evenodd;clip-rule:evenodd;fill:#ED500A;" d="M248.482,165.775         c12.565,2.129,60.18,15.284,72.764,17.829c-5.412-35.851-2.788-84.042,6.77-95.324c19.419,9.514,27.707,34.498,33.963,62.299         c2.451,10.9,4.548,24.006,5.451,37.481c0.866,12.89-0.271,24.508-6.719,31.015c-16.214,16.381-57.189-0.805-72.46-7.191         c-11.72-4.904-45.372-23.976-45.372-23.976S247.011,171.027,248.482,165.775"/>
							<path style="fill:#C6360A;" d="M361.98,150.58c-3.971-17.635-8.757-34.125-16.682-46.268         c5.027,10.717,8.542,23.531,11.573,37.015c2.46,10.899,4.553,24.011,5.457,37.483c0.865,12.89-0.275,24.505-6.714,31.014         c-16.216,16.384-57.191-0.804-72.464-7.192c-8.5-3.55-28.515-14.55-38.887-20.334c-0.802,3.24-1.384,5.611-1.384,5.611         s33.652,19.074,45.374,23.973c15.271,6.389,56.246,23.575,72.46,7.191c6.448-6.507,7.585-18.122,6.719-31.013         C366.528,174.589,364.431,161.478,361.98,150.58"/>
						</g>
					</g>
				</g>
			</g>
			<g>
				<path style="fill-rule:evenodd;clip-rule:evenodd;fill:#FFFFFF;" d="M335.259,123.109c1.125-0.332,1.208-1.508,1.339-2.604      c0.09-0.844,0.121-1.941-0.504-2.567c-0.883-0.869-2.069,0.384-2.372,1.399c-0.096,0.331-0.153,1.21-0.157,1.677      C333.572,122.008,334.025,123.476,335.259,123.109z"/>
				<path style="fill-rule:evenodd;clip-rule:evenodd;fill:#FFFFFF;" d="M340.315,115.192c1.445-0.505,1.497-1.972,1.416-3.211      c-0.106-1.617-0.569-3.791-1.006-5.59c-0.54-2.214-2.387-5.473-4.58-4.181c-2.307,1.359-0.552,6.291,0.265,8.844      C337.009,112.921,338.239,115.916,340.315,115.192z"/>
			</g>
			<g>
				<path style="fill-rule:evenodd;clip-rule:evenodd;fill:#C6360A;" d="M219.158,212.915c2.952-0.774,3.227-4.043,3.812-6.102      c0.598-2.102,2.173-4.831,0.409-7.078c-0.801-0.186-1.896-0.056-2.804,1.312C218.693,203.871,216.933,210.795,219.158,212.915z"/>
				<path style="fill-rule:evenodd;clip-rule:evenodd;fill:#C6360A;" d="M217.963,224.624c1.623-0.097,2.494-2.377,3.101-4.242      c0.564-1.738,1.75-4.491-0.081-5.37C218.605,215.832,216.032,222.648,217.963,224.624z"/>
			</g>
		</g>
		<g>
			<g>
				<g>
					<path style="fill-rule:evenodd;clip-rule:evenodd;fill:#EFAC8B;" d="M170.382,296.474c5.558,10.057,13.987,20.987,17.68,30.632       c-8.696,5.947-17.127,10.207-26.816,15.504c-3.952,2.16-8.504,4.864-13.636,7.175c-4.446,2.004-11.236,5.059-15.355,4.514       c-4.306-0.567-9.333-3.348-13.82-5.666c-8.256-4.264-16.161-8.522-23.085-14.464c-2.895-2.486-7.338-6.712-6.153-9.367       c1.723-3.862,10.976-1.097,15.725-0.21c8.064,1.513,14.767,2.641,20.485,0.578c3.981-1.431,7.745-4.307,11.562-6.796       C148.192,311.045,159.118,303.125,170.382,296.474z"/>
					<path style="fill:#ED500A;" d="M132.254,354.298c4.12,0.545,10.91-2.51,15.355-4.514c4.688-2.111,8.892-4.546,12.599-6.599       l-13.632-31.227c-3.188,2.158-6.387,4.311-9.61,6.416c-3.817,2.49-7.581,5.366-11.562,6.796       c-5.718,2.063-12.421,0.935-20.485-0.578c-4.749-0.887-14.002-3.653-15.725,0.21c-1.184,2.655,3.258,6.881,6.153,9.367       c6.924,5.942,14.83,10.199,23.085,14.464C122.921,350.95,127.948,353.732,132.254,354.298z"/>
				</g>
				<g>
					<path style="fill-rule:evenodd;clip-rule:evenodd;fill:#C6360A;" d="M117.649,341.811c0.838-0.71,1.801-0.173,2.725,0.288       c0.704,0.36,1.579,0.897,1.75,1.709c0.227,1.134-1.359,1.422-2.311,1.137c-0.307-0.094-1.021-0.498-1.391-0.735       C117.646,343.694,116.73,342.586,117.649,341.811z"/>
					<path style="fill-rule:evenodd;clip-rule:evenodd;fill:#C6360A;" d="M126.43,341.918c1.138-0.873,2.312-0.162,3.239,0.539       c1.21,0.909,2.67,2.384,3.853,3.649c1.455,1.558,3.059,4.672,0.921,5.722c-2.243,1.109-5.197-2.789-6.778-4.737       C126.512,345.664,124.803,343.168,126.43,341.918z"/>
				</g>
			</g>
			<path style="fill-rule:evenodd;clip-rule:evenodd;fill:#423E77;" d="M296.389,305.492c-15.1,5.451-37.451,6.719-51.819,2.937     c13.708-4.937,26.396-10.728,35.644-19.414c0.258-0.08,0.301,0.098,0.337,0.285c4.022,3.924,6.84,9.285,11.151,12.837     C293.226,303.388,295.354,303.603,296.389,305.492"/>
			<g>
				<g>
					<path style="fill-rule:evenodd;clip-rule:evenodd;fill:#5C548E;" d="M273.539,295.241       c-11.139,8.07-25.909,13.254-43.048,17.237c-2.505,0.576-5.396,1.747-7.08,1.554c-2.622-0.301-6.551-4.82-8.771-7.08       c-8.034-8.21-14.716-17.199-21.428-26.37c15.787-11.063,30.411-22.465,45.47-36.266c6.712-6.153,13.253-13.422,20.539-19.98       c7.332-6.594,15.176-12.798,25.638-15.407c4.379-1.09,12.608-1.178,17.29,0.381c7.776,2.59,15.98,8.273,22.236,14.066       c12.159,11.25,23.422,27.794,27.996,47.763c2.539,11.092,2.324,21.582-3.006,30.371c-4.058,6.694-11.888,12.878-22.27,14.488       c-11.938,1.849-21.881-1.729-30.619-5.813C287.647,306.064,280.465,300.762,273.539,295.241"/>
					<path style="fill:#7874AD;" d="M352.38,271.142c-4.575-19.971-15.838-36.515-27.996-47.763       c-6.256-5.796-14.461-11.478-22.238-14.068c-4.68-1.558-12.909-1.471-17.288-0.378c-6.845,1.704-12.567,4.954-17.764,8.843       c3.267-1.789,6.776-3.249,10.652-4.212c4.382-1.092,12.603-1.178,17.286,0.38c7.779,2.588,15.979,8.268,22.243,14.065       c12.15,11.248,23.42,27.794,27.988,47.758c2.546,11.094,2.326,21.58-3.003,30.38c-1.506,2.483-3.536,4.897-6.02,7.032       c5.866-2.799,10.372-7.111,13.134-11.668C354.704,292.72,354.919,282.23,352.38,271.142"/>
					<path style="fill-rule:evenodd;clip-rule:evenodd;fill:#423E77;" d="M273.539,295.241c34.557-8.657,36.13-33.191,36.13-33.191       C295.222,281.347,273.539,295.241,273.539,295.241"/>
				</g>
				<g>
					<path style="fill-rule:evenodd;clip-rule:evenodd;fill:#423E77;" d="M208.254,280.442c0.963-0.521,2.004,0.204,2.824,0.822       c1.234,0.927,2.542,2.428,3.574,3.836c0.585,0.809,1.296,1.467,1.641,2.196c0.609,1.281,0.421,2.475-0.621,2.82       c-0.816,0.272-1.765-0.367-2.53-1.112c-1.219-1.19-2.761-3.043-3.902-4.442C208.325,283.437,206.607,281.346,208.254,280.442z"/>
					<path style="fill-rule:evenodd;clip-rule:evenodd;fill:#423E77;" d="M218.759,283.333c1.313-0.65,2.331,1.043,3.025,2.392       c0.205,0.397,0.333,0.819,0.545,1.253c0.543,1.1,1.87,2.32,1.142,3.407c-0.207,0.316-0.619,0.493-0.858,0.547       c-1.191,0.265-2.003-1.369-2.792-2.66c-0.347-0.578-0.716-1.19-1.093-1.918C218.125,285.193,217.638,283.893,218.759,283.333z"/>
					<path style="fill-rule:evenodd;clip-rule:evenodd;fill:#423E77;" d="M219.889,295.698c1.753-1.023,2.877,2.402,3.788,4.091       c0.677,1.261,1.469,3.292,0.144,3.746c-1.197,0.405-2.06-1.424-2.73-2.685c-0.337-0.634-0.74-1.319-1.038-1.937       C219.54,297.84,218.9,296.275,219.889,295.698z"/>
				</g>
				<g>
					<path style="fill-rule:evenodd;clip-rule:evenodd;fill:#423E77;" d="M322.819,244.189c1.083,0.112,1.531,1.3,1.858,2.274       c0.488,1.466,0.714,3.444,0.764,5.188c0.025,0.998,0.235,1.941,0.108,2.739c-0.227,1.4-1.059,2.274-2.114,1.971       c-0.826-0.24-1.244-1.304-1.45-2.351c-0.331-1.673-0.55-4.074-0.694-5.874C321.176,246.689,320.948,243.994,322.819,244.189z"/>
					<path style="fill-rule:evenodd;clip-rule:evenodd;fill:#423E77;" d="M329.829,252.528c1.449,0.211,1.322,2.183,1.13,3.685       c-0.056,0.445-0.186,0.862-0.26,1.341c-0.176,1.214,0.221,2.971-0.993,3.452c-0.349,0.144-0.791,0.056-1.018-0.034       c-1.129-0.462-0.871-2.262-0.787-3.774c0.04-0.673,0.084-1.39,0.185-2.201C328.253,253.698,328.585,252.352,329.829,252.528z"/>
					<path style="fill-rule:evenodd;clip-rule:evenodd;fill:#423E77;" d="M323.741,263.35c2.022,0.156,1.008,3.611,0.797,5.52       c-0.156,1.419-0.657,3.542-2.005,3.165c-1.219-0.348-0.889-2.34-0.724-3.759c0.082-0.714,0.135-1.508,0.238-2.185       C322.235,264.915,322.598,263.265,323.741,263.35z"/>
				</g>
			</g>
			<g>
				<g>
					<g>
						<path style="fill-rule:evenodd;clip-rule:evenodd;fill:#EFAC8B;" d="M182.256,328.346        c6.431-9.521,12.334-22.001,19.249-29.671c9.252,5.045,16.877,10.62,25.997,16.842c3.721,2.54,8.199,5.368,12.587,8.887        c3.81,3.053,9.612,7.707,10.999,11.628c1.455,4.095,1.259,9.837,1.236,14.882c-0.048,9.295-0.252,18.27-2.397,27.143        c-0.9,3.706-2.645,9.584-5.547,9.735c-4.222,0.222-5.967-9.278-7.332-13.913c-2.319-7.869-4.359-14.352-8.796-18.512        c-3.08-2.892-7.354-4.942-11.304-7.207C205.321,341.491,193.297,335.354,182.256,328.346z"/>
						<path style="fill:#ED500A;" d="M251.089,336.032c-1.387-3.92-7.19-8.575-10.999-11.628c-4.01-3.216-8.089-5.851-11.6-8.221        l-21.625,26.331c3.372,1.86,6.744,3.732,10.084,5.646c3.95,2.265,8.224,4.315,11.304,7.207        c4.437,4.16,6.477,10.643,8.796,18.512c1.366,4.635,3.11,14.136,7.332,13.913c2.902-0.152,4.648-6.029,5.547-9.735        c2.145-8.872,2.349-17.847,2.397-27.143C252.348,345.868,252.544,340.126,251.089,336.032z"/>
					</g>
					<g>
						<path style="fill-rule:evenodd;clip-rule:evenodd;fill:#C6360A;" d="M246.602,354.714c-1.013-0.421-0.973-1.524-0.98-2.557        c0-0.791,0.082-1.816,0.727-2.335c0.909-0.718,1.885,0.565,2.063,1.541c0.057,0.316,0.018,1.14-0.026,1.575        C248.282,353.863,247.711,355.183,246.602,354.714z"/>
						<path style="fill-rule:evenodd;clip-rule:evenodd;fill:#C6360A;" d="M242.706,346.845c-1.292-0.616-1.19-1.982-0.992-3.13        c0.262-1.49,0.913-3.462,1.5-5.091c0.728-2.004,2.774-4.847,4.682-3.422c2.006,1.498-0.123,5.902-1.138,8.193        C246.009,345.069,244.563,347.727,242.706,346.845z"/>
					</g>
				</g>
				<g>
					<path style="fill-rule:evenodd;clip-rule:evenodd;fill:#423E77;" d="M170.033,220.241c-0.738,0.161-1.823,0.257-2.632,0.328       c-5.214,0.453-9.557-2.079-12.364-4.307c-1.094-0.306-1.842-0.505-2.933-0.812c-10.297-2.875-25.037-5.212-33.157-6.106       c8.778,2.118,15.327,9.367,21.741,15.569c6.404,6.195,12.117,12.66,17.614,18.548c5.874,6.296,12.146,12.169,17.61,18.545       c5.746,6.701,10.881,13.703,17.068,19.534c10.018-6.693,19.128-14.508,28.524-21.926c9.309-7.353,18.763-14.792,26.495-23.636       C219.956,232.03,194.964,226.699,170.033,220.241"/>
					<path style="fill-rule:evenodd;clip-rule:evenodd;fill:#7874AD;" d="M215.109,318.726c2.487-2.842,5.08-5.585,7.696-8.3       l-42.831-45.009c-12.899-14.406-25.767-28.636-39.731-42.033c-4.637-4.451-9.878-9.723-14.862-12.195       c-2.924-1.454-6.862-2.445-10.803-1.573c-6.231,1.382-10.409,7.06-13.714,11.859c-2.8,4.069-5.274,9.001-6.028,13.698       c-1.99,12.454,4.045,21.97,9.534,30.232c3.85,5.786,8.056,10.964,12.33,15.554c13.44,14.417,27.9,27.438,44.132,38.517       c11.81,8.056,23.774,16.539,36.535,23.391C203.498,334.99,208.513,326.259,215.109,318.726z"/>
					<path style="fill:#5C548E;" d="M202.014,336.521c-14.531-6.76-29.395-15.123-41.748-23.553       c-16.232-11.076-30.691-24.098-44.132-38.513c-4.274-4.587-8.483-9.767-12.332-15.554c-3.804-5.72-7.859-12.044-9.334-19.531       c-0.223,10.435,5.043,18.726,9.898,26.031c3.852,5.789,8.059,10.972,12.332,15.556c13.44,14.417,27.9,27.438,44.132,38.515       c11.81,8.059,23.774,16.541,36.535,23.393C198.976,340.799,200.51,338.67,202.014,336.521z"/>
				</g>
				<g>
					<path style="fill-rule:evenodd;clip-rule:evenodd;fill:#FFFFFF;" d="M107.293,251.056c-1.119-0.357-1.18-1.534-1.279-2.633       c-0.073-0.846-0.079-1.944,0.56-2.559c0.902-0.847,2.059,0.432,2.342,1.458c0.089,0.329,0.124,1.212,0.116,1.679       C109.004,249.994,108.517,251.454,107.293,251.056z"/>
					<path style="fill-rule:evenodd;clip-rule:evenodd;fill:#FFFFFF;" d="M102.422,243.026c-1.436-0.539-1.452-2.008-1.342-3.247       c0.141-1.614,0.653-3.773,1.132-5.563c0.593-2.202,2.511-5.42,4.677-4.074c2.273,1.412,0.405,6.298-0.47,8.836       C105.778,240.831,104.477,243.797,102.422,243.026z"/>
				</g>
			</g>
		</g>
	</g>
	<g>
		<path style="fill-rule:evenodd;clip-rule:evenodd;fill:#687C15;" d="M425.412,353.864c-51.106,1.675-104.079,1.444-153.841,4.494    c-4.248-12.918-10-46.063-1.188-60.15c6.368-10.18,20.099-16.598,31.572-21.876c5.916-2.719,12.292-5.36,18.572-7.93    c6.433-2.632,13.175-4.934,18.571-7.93c15.949-8.857,23.399-30.194,27.214-51.368c1.904-10.563,3.398-22.575,4.786-34.71    c1.213-10.622,3.228-25.255,10.046-29.328c3.695-2.206,10.567-2.971,16.01-2.949c5.43,0.024,17.659,1.254,21.564,4.009    c5.073,3.577,5.815,12.55,6.653,20.747c0.929,9.111,1.083,17.551,1.272,25.699c0.431,18.848,0.61,36.036,0.951,53.257    C428.336,283.203,427.13,320.279,425.412,353.864z"/>
		<g>
			<path style="fill-rule:evenodd;clip-rule:evenodd;fill:#525E0A;" d="M392.391,148.567c-1.387,0.115-1.993,1.615-2.439,2.851     c-0.668,1.851-1.012,4.371-1.126,6.595c-0.059,1.27-0.358,2.468-0.217,3.493c0.246,1.789,1.281,2.932,2.636,2.574     c1.062-0.282,1.627-1.628,1.921-2.958c0.466-2.125,0.82-5.178,1.054-7.47C394.412,151.809,394.784,148.376,392.391,148.567z"/>
			<path style="fill-rule:evenodd;clip-rule:evenodd;fill:#525E0A;" d="M383.203,159.003c-1.857,0.223-1.755,2.742-1.55,4.665     c0.054,0.568,0.213,1.107,0.289,1.719c0.195,1.553-0.366,3.784,1.171,4.431c0.44,0.195,1.004,0.098,1.299-0.012     c1.452-0.553,1.178-2.863,1.113-4.794c-0.031-0.857-0.063-1.769-0.17-2.813C385.182,160.541,384.795,158.815,383.203,159.003z"/>
			<path style="fill-rule:evenodd;clip-rule:evenodd;fill:#525E0A;" d="M390.653,172.985c-2.587,0.136-1.393,4.576-1.18,7.018     c0.16,1.816,0.734,4.537,2.465,4.096c1.562-0.408,1.204-2.96,1.035-4.773c-0.083-0.914-0.128-1.928-0.242-2.795     C392.524,175.025,392.111,172.909,390.653,172.985z"/>
		</g>
		<g>
			<path style="fill-rule:evenodd;clip-rule:evenodd;fill:#FFFFFF;" d="M277.956,320.385c-1.045-0.532-0.914-1.703-0.842-2.805     c0.064-0.846,0.231-1.931,0.959-2.435c1.026-0.694,1.964,0.752,2.078,1.808c0.038,0.342-0.068,1.219-0.148,1.68     C279.815,319.608,279.104,320.971,277.956,320.385z"/>
			<path style="fill-rule:evenodd;clip-rule:evenodd;fill:#FFFFFF;" d="M274.423,311.681c-1.331-0.756-1.116-2.21-0.809-3.417     c0.394-1.573,1.241-3.621,1.998-5.312c0.936-2.082,3.341-4.952,5.264-3.279c2.025,1.752-0.596,6.284-1.865,8.648     C278.085,310.047,276.33,312.769,274.423,311.681z"/>
		</g>
		<g>
			<path style="fill-rule:evenodd;clip-rule:evenodd;fill:#525E0A;" d="M407.448,345.017c-1.047-0.531-0.915-1.702-0.844-2.804     c0.063-0.844,0.232-1.929,0.96-2.435c1.024-0.693,1.963,0.753,2.08,1.807c0.033,0.342-0.07,1.218-0.154,1.679     C409.309,344.243,408.595,345.603,407.448,345.017z"/>
			<path style="fill-rule:evenodd;clip-rule:evenodd;fill:#525E0A;" d="M403.913,336.314c-1.329-0.759-1.114-2.212-0.809-3.418     c0.396-1.571,1.246-3.623,2.001-5.312c0.935-2.079,3.342-4.952,5.264-3.281c2.023,1.753-0.595,6.285-1.863,8.65     C407.576,334.68,405.823,337.404,403.913,336.314z"/>
		</g>
	</g>
</g>















</svg>
